<svg width="14" height="16" viewBox="0 0 14 16" fill="none" xmlns="http://www.w3.org/2000/svg">
<g id="elements">
<path id="Vector" d="M6.33325 8.6665H9.66659M4.33325 8.6665H4.33924M7.66659 11.3332H4.33325M9.66659 11.3332H9.6606" stroke="#818282" stroke-linecap="round" stroke-linejoin="round"/>
<path id="Vector_2" d="M11 1.33301V2.66634M3 1.33301V2.66634" stroke="#818282" stroke-linecap="round" stroke-linejoin="round"/>
<path id="Vector_3" d="M0.666748 8.16192C0.666748 5.25705 0.666748 3.80461 1.50149 2.90218C2.33624 1.99976 3.67974 1.99976 6.36675 1.99976H7.63341C10.3204 1.99976 11.6639 1.99976 12.4987 2.90218C13.3334 3.80461 13.3334 5.25705 13.3334 8.16192V8.50426C13.3334 11.4091 13.3334 12.8616 12.4987 13.764C11.6639 14.6664 10.3204 14.6664 7.63341 14.6664H6.36675C3.67974 14.6664 2.33624 14.6664 1.50149 13.764C0.666748 12.8616 0.666748 11.4091 0.666748 8.50426V8.16192Z" stroke="#818282" stroke-linecap="round" stroke-linejoin="round"/>
<path id="Vector 4049" d="M1 5.33301H13" stroke="#818282" stroke-linecap="round" stroke-linejoin="round"/>
</g>
</svg>
