<svg width="18" height="17" viewBox="0 0 18 17" fill="none" xmlns="http://www.w3.org/2000/svg">
<g id="Social media logo">
<path id="vector" d="M16.2195 8.66027C16.2195 8.06673 16.1703 7.63361 16.064 7.18445H9.14807V9.86338H13.2076C13.1257 10.5291 12.6838 11.5317 11.7016 12.2054L11.6879 12.2951L13.8745 13.9553L14.026 13.9701C15.4174 12.7108 16.2195 10.858 16.2195 8.66027Z" fill="#4285F4"/>
<path id="vector_2" d="M9.14712 15.7188C11.1359 15.7188 12.8055 15.0771 14.0251 13.9703L11.7007 12.2056C11.0787 12.6307 10.2438 12.9275 9.14712 12.9275C7.19923 12.9275 5.54597 11.6683 4.95663 9.92773L4.87025 9.93492L2.59651 11.6594L2.56677 11.7404C3.77806 14.0986 6.26616 15.7188 9.14712 15.7188Z" fill="#34A853"/>
<path id="vector_3" d="M4.95779 9.92776C4.80228 9.4786 4.71229 8.99731 4.71229 8.50005C4.71229 8.00272 4.80228 7.52149 4.94961 7.07233L4.94549 6.97667L2.64325 5.22449L2.56792 5.2596C2.06869 6.23815 1.78223 7.33703 1.78223 8.50005C1.78223 9.66306 2.06869 10.7619 2.56792 11.7404L4.95779 9.92776Z" fill="#FBBC05"/>
<path id="vector_4" d="M9.14716 4.07248C10.5303 4.07248 11.4633 4.658 11.9954 5.1473L14.0742 3.15812C12.7975 1.99511 11.136 1.28125 9.14716 1.28125C6.26618 1.28125 3.77807 2.90145 2.56677 5.25955L4.94846 7.07228C5.54599 5.33177 7.19925 4.07248 9.14716 4.07248Z" fill="#EB4335"/>
</g>
</svg>
