<svg width="20" height="19" viewBox="0 0 20 19" fill="none" xmlns="http://www.w3.org/2000/svg">
<path fill-rule="evenodd" clip-rule="evenodd" d="M4.20746 13.9627C1.37551 11.1308 1.37551 6.53929 4.20746 3.70734C7.03941 0.875386 11.6309 0.875386 14.4629 3.70734C17.0514 6.29591 17.2739 10.3546 15.1303 13.1958L17.9914 16.0569C18.7378 16.8033 17.6182 17.9229 16.8718 17.1765L14.0449 14.3496C11.1958 16.7882 6.90398 16.6593 4.20746 13.9627ZM13.3431 4.82688C11.1295 2.61326 7.5405 2.61326 5.32688 4.82688C3.11326 7.0405 3.11326 10.6295 5.32688 12.8431C7.5405 15.0567 11.1295 15.0567 13.3431 12.8431C15.5567 10.6295 15.5567 7.0405 13.3431 4.82688Z" fill="#696974"/>
</svg>
