<svg width="33" height="33" viewBox="0 0 33 33" fill="none" xmlns="http://www.w3.org/2000/svg">
<path fill-rule="evenodd" clip-rule="evenodd" d="M16.9331 2.75C20.2744 2.75 20.7611 2.76787 22.1691 2.8325C23.6321 2.89987 24.6317 3.13225 25.5062 3.47188C26.4241 3.81683 27.2556 4.35787 27.9428 5.05725C28.6421 5.74444 29.1832 6.57594 29.5281 7.49375C29.8678 8.36825 30.1001 9.36787 30.1675 10.8309C30.2335 12.298 30.25 12.7655 30.25 16.5V16.61C30.25 20.2441 30.2335 20.7171 30.1675 22.1691C30.1001 23.6321 29.8678 24.6317 29.5281 25.5062C29.1832 26.4241 28.6421 27.2556 27.9428 27.9428C27.2556 28.6421 26.4241 29.1832 25.5062 29.5281C24.6317 29.8678 23.6321 30.1001 22.1691 30.1675C20.702 30.2335 20.2345 30.25 16.5 30.25H16.39C12.7559 30.25 12.2829 30.2335 10.8309 30.1675C9.36787 30.1001 8.36825 29.8678 7.49375 29.5281C6.57594 29.1832 5.74444 28.6421 5.05725 27.9428C4.35787 27.2556 3.81683 26.4241 3.47188 25.5062C3.13225 24.6317 2.89987 23.6321 2.8325 22.1691C2.76787 20.7611 2.75 20.273 2.75 16.9331V16.0669C2.75 12.7256 2.76787 12.2389 2.8325 10.8309C2.89987 9.36787 3.13225 8.36825 3.47188 7.49375C3.81683 6.57594 4.35787 5.74444 5.05725 5.05725C5.74444 4.35787 6.57594 3.81683 7.49375 3.47188C8.36825 3.13225 9.36787 2.89987 10.8309 2.8325C12.2389 2.76787 12.727 2.75 16.0669 2.75H16.9331ZM16.8218 5.22775H16.1782C12.8012 5.22775 12.3503 5.24287 10.9436 5.3075C9.603 5.36937 8.87563 5.59212 8.39025 5.7805C7.74813 6.03075 7.29025 6.32775 6.809 6.809C6.32775 7.29025 6.03075 7.74813 5.7805 8.39025C5.59212 8.87563 5.368 9.603 5.3075 10.9436C5.24287 12.3503 5.22775 12.8012 5.22775 16.1782V16.8218C5.22775 20.1987 5.24287 20.6497 5.3075 22.0564C5.36937 23.397 5.59212 24.1244 5.7805 24.6098C6.03075 25.2505 6.32913 25.7098 6.809 26.191C7.29025 26.6723 7.74813 26.9692 8.39025 27.2195C8.87563 27.4079 9.603 27.632 10.9436 27.6925C12.3929 27.7585 12.8274 27.7722 16.5 27.7722H16.61C20.1809 27.7722 20.6209 27.7585 22.055 27.6925C23.397 27.6306 24.1244 27.4079 24.6098 27.2195C25.2505 26.9692 25.7098 26.6723 26.191 26.191C26.6723 25.7098 26.9692 25.2519 27.2195 24.6098C27.4079 24.1244 27.632 23.397 27.6925 22.0564C27.7585 20.6058 27.7722 20.1726 27.7722 16.5V16.39C27.7722 12.8191 27.7585 12.3791 27.6925 10.945C27.6306 9.603 27.4079 8.87563 27.2195 8.39025C26.9992 7.79291 26.6477 7.25257 26.191 6.809C25.7474 6.35231 25.2071 6.00086 24.6098 5.7805C24.1244 5.59212 23.397 5.368 22.0564 5.3075C20.6497 5.24287 20.1987 5.22775 16.8218 5.22775ZM16.5 9.43937C17.4272 9.43937 18.3453 9.622 19.202 9.97683C20.0586 10.3317 20.837 10.8517 21.4926 11.5074C22.1483 12.163 22.6683 12.9414 23.0232 13.798C23.378 14.6547 23.5606 15.5728 23.5606 16.5C23.5606 17.4272 23.378 18.3453 23.0232 19.202C22.6683 20.0586 22.1483 20.837 21.4926 21.4926C20.837 22.1483 20.0586 22.6683 19.202 23.0232C18.3453 23.378 17.4272 23.5606 16.5 23.5606C14.6274 23.5606 12.8315 22.8167 11.5074 21.4926C10.1833 20.1685 9.43937 18.3726 9.43937 16.5C9.43937 14.6274 10.1833 12.8315 11.5074 11.5074C12.8315 10.1833 14.6274 9.43937 16.5 9.43937ZM16.5 11.9171C15.2845 11.9171 14.1189 12.4 13.2594 13.2594C12.4 14.1189 11.9171 15.2845 11.9171 16.5C11.9171 17.7155 12.4 18.8811 13.2594 19.7406C14.1189 20.6 15.2845 21.0829 16.5 21.0829C17.7155 21.0829 18.8811 20.6 19.7406 19.7406C20.6 18.8811 21.0829 17.7155 21.0829 16.5C21.0829 15.2845 20.6 14.1189 19.7406 13.2594C18.8811 12.4 17.7155 11.9171 16.5 11.9171ZM23.8397 7.51025C24.2774 7.51025 24.697 7.68409 25.0065 7.99352C25.3159 8.30296 25.4897 8.72264 25.4897 9.16025C25.4897 9.59786 25.3159 10.0175 25.0065 10.327C24.697 10.6364 24.2774 10.8103 23.8397 10.8103C23.4021 10.8103 22.9825 10.6364 22.673 10.327C22.3636 10.0175 22.1898 9.59786 22.1898 9.16025C22.1898 8.72264 22.3636 8.30296 22.673 7.99352C22.9825 7.68409 23.4021 7.51025 23.8397 7.51025Z" fill="#9CA3AF"/>
</svg>
