<svg width="106" height="19" viewBox="0 0 106 19" fill="none" xmlns="http://www.w3.org/2000/svg">
<path id="Line 5" d="M1.73633 8.00725C0.911903 8.00725 0.243575 8.67557 0.243575 9.5C0.243575 10.3244 0.911903 10.9928 1.73633 10.9928V8.00725ZM105.51 9.5L90.5827 0.881583V18.1184L105.51 9.5ZM1.73633 10.9928H2.47757V8.00725H1.73633V10.9928ZM3.96005 10.9928H5.44254V8.00725H3.96005V10.9928ZM6.92502 10.9928H8.40751V8.00725H6.92502V10.9928ZM9.88999 10.9928H11.3725V8.00725H9.88999V10.9928ZM12.855 10.9928H14.3374V8.00725H12.855V10.9928ZM15.8199 10.9928H17.3024V8.00725H15.8199V10.9928ZM18.7849 10.9928H20.2674V8.00725H18.7849V10.9928ZM21.7499 10.9928H23.2323V8.00725H21.7499V10.9928ZM24.7148 10.9928H26.1973V8.00725H24.7148V10.9928ZM27.6798 10.9928H29.1623V8.00725H27.6798V10.9928ZM30.6448 10.9928H32.1273V8.00725H30.6448V10.9928ZM33.6097 10.9928H35.0922V8.00725H33.6097V10.9928ZM36.5747 10.9928H38.0572V8.00725H36.5747V10.9928ZM39.5397 10.9928H41.0222V8.00725H39.5397V10.9928ZM42.5046 10.9928H43.9871V8.00725H42.5046V10.9928ZM45.4696 10.9928H46.9521V8.00725H45.4696V10.9928ZM48.4346 10.9928H49.9171V8.00725H48.4346V10.9928ZM51.3995 10.9928H52.882V8.00725H51.3995V10.9928ZM54.3645 10.9928H55.847V8.00725H54.3645V10.9928ZM57.3295 10.9928H58.812V8.00725H57.3295V10.9928ZM60.2944 10.9928H61.7769V8.00725H60.2944V10.9928ZM63.2594 10.9928H64.7419V8.00725H63.2594V10.9928ZM66.2244 10.9928H67.7068V8.00725H66.2244V10.9928ZM69.1893 10.9928H70.6718V8.00725H69.1893V10.9928ZM72.1543 10.9928H73.6368V8.00725H72.1543V10.9928ZM75.1193 10.9928H76.6017V8.00725H75.1193V10.9928ZM78.0842 10.9928H79.5667V8.00725H78.0842V10.9928ZM81.0492 10.9928H82.5317V8.00725H81.0492V10.9928ZM84.0142 10.9928H85.4966V8.00725H84.0142V10.9928ZM86.9791 10.9928H88.4616V8.00725H86.9791V10.9928ZM89.9441 10.9928H91.4266V8.00725H89.9441V10.9928ZM92.9091 10.9928H94.3915V8.00725H92.9091V10.9928ZM95.874 10.9928H97.3565V8.00725H95.874V10.9928ZM98.839 10.9928H100.321V8.00725H98.839V10.9928ZM101.804 10.9928H103.286V8.00725H101.804V10.9928Z" fill="#757575"/>
</svg>
