<svg width="15" height="15" viewBox="0 0 15 15" fill="none" xmlns="http://www.w3.org/2000/svg">
<g id="vuesax/twotone/microphone-slash">
<g id="microphone-slash">
<path id="Vector" d="M9.83317 4.17533V4.00033C9.83317 2.71116 8.789 1.66699 7.49984 1.66699C6.21067 1.66699 5.1665 2.71116 5.1665 4.00033V6.91699" stroke="#292D32" stroke-width="0.90625" stroke-linecap="round" stroke-linejoin="round"/>
<path id="Vector_2" d="M3.03711 6.12891V7.12057C3.03711 7.73891 3.15961 8.32224 3.38711 8.85891" stroke="#292D32" stroke-width="0.90625" stroke-linecap="round" stroke-linejoin="round"/>
<path id="Vector_3" d="M12.207 2.15674L2.79199 11.5776" stroke="#292D32" stroke-width="0.90625" stroke-linecap="round" stroke-linejoin="round"/>
<path id="Vector_4" d="M6.9165 2.25V4" stroke="#292D32" stroke-width="0.90625" stroke-linecap="round" stroke-linejoin="round"/>
<g id="Group 594" opacity="0.4">
<path id="Vector_5" d="M5.77344 8.77734C6.19927 9.24984 6.8176 9.5415 7.5001 9.5415C8.78927 9.5415 9.83344 8.49734 9.83344 7.20817V6.9165" stroke="#292D32" stroke-width="0.90625" stroke-linecap="round" stroke-linejoin="round"/>
<path id="Vector_6" d="M4.45508 10.3877C5.25424 11.1286 6.32174 11.5836 7.50008 11.5836C9.96174 11.5836 11.9626 9.58273 11.9626 7.12106V6.12939" stroke="#292D32" stroke-width="0.90625" stroke-linecap="round" stroke-linejoin="round"/>
<path id="Vector_7" d="M7.50049 11.583V13.333" stroke="#292D32" stroke-width="0.90625" stroke-linecap="round" stroke-linejoin="round"/>
</g>
</g>
</g>
</svg>
