<svg width="24" height="25" viewBox="0 0 24 25" fill="none" xmlns="http://www.w3.org/2000/svg">
<g id="clarity:notification-outline-badged" clip-path="url(#clip0_158_7320)">
<path id="Vector" d="M12 23.1072C12.42 23.0974 12.823 22.9378 13.1378 22.6565C13.4525 22.3753 13.6588 21.9905 13.72 21.5703H10.2134C10.2764 22.0019 10.4923 22.3957 10.8209 22.6784C11.1496 22.9611 11.5686 23.1135 12 23.1072Z" fill="#212121"/>
<path id="Vector_2" d="M21.6734 18.7595C21.0306 18.1801 20.4677 17.5158 20.0001 16.7845C19.4896 15.7751 19.1836 14.6728 19.1001 13.5422V10.2123C19.0974 9.8078 19.0617 9.40423 18.9934 9.00568C18.4687 8.89963 17.9644 8.70841 17.5001 8.43946C17.6771 9.01569 17.767 9.61564 17.7668 10.219V13.5489C17.8485 14.9281 18.2237 16.2732 18.8668 17.4923C19.327 18.2297 19.8732 18.9086 20.4934 19.5145H3.42011C4.04039 18.9086 4.58651 18.2297 5.04678 17.4923C5.68986 16.2732 6.06507 14.9281 6.14678 13.5489V10.2123C6.14327 9.43216 6.29199 8.65901 6.58441 7.93709C6.87683 7.21517 7.30722 6.55866 7.85092 6.00515C8.39463 5.45165 9.04098 5.01202 9.75296 4.71143C10.4649 4.41085 11.2286 4.25522 12.0001 4.25346C13.1293 4.25437 14.2331 4.59202 15.1734 5.22413C15.0698 4.83922 15.0116 4.44325 15.0001 4.0445V3.61983C14.304 3.2736 13.5562 3.04585 12.7868 2.94576V2.09642C12.7868 1.85776 12.693 1.62887 12.5261 1.4601C12.3592 1.29134 12.1328 1.19653 11.8968 1.19653C11.6607 1.19653 11.4344 1.29134 11.2675 1.4601C11.1005 1.62887 11.0068 1.85776 11.0068 2.09642V2.97946C9.28392 3.2252 7.70716 4.09286 6.56759 5.42226C5.42803 6.75166 4.8026 8.45303 4.80678 10.2123V13.5422C4.72328 14.6728 4.4173 15.7751 3.90678 16.7845C3.44737 17.5141 2.89358 18.1783 2.26011 18.7595C2.189 18.8227 2.13201 18.9005 2.09293 18.9876C2.05384 19.0748 2.03357 19.1694 2.03345 19.2651V20.1818C2.03345 20.3606 2.10369 20.5321 2.22871 20.6585C2.35373 20.7849 2.5233 20.8559 2.70011 20.8559H21.2334C21.4103 20.8559 21.5798 20.7849 21.7049 20.6585C21.8299 20.5321 21.9001 20.3606 21.9001 20.1818V19.2651C21.9 19.1694 21.8797 19.0748 21.8406 18.9876C21.8016 18.9005 21.7446 18.8227 21.6734 18.7595Z" fill="#424242"/>
<path id="Vector_3" d="M20 7.41481C21.8409 7.41481 23.3333 5.90585 23.3333 4.04444C23.3333 2.18304 21.8409 0.674072 20 0.674072C18.159 0.674072 16.6666 2.18304 16.6666 4.04444C16.6666 5.90585 18.159 7.41481 20 7.41481Z" fill="#FD632F"/>
</g>
<defs>
<clipPath id="clip0_158_7320">
<rect width="24" height="24.2667" fill="white"/>
</clipPath>
</defs>
</svg>
