<svg width="13" height="13" viewBox="0 0 13 13" fill="none" xmlns="http://www.w3.org/2000/svg">
<g id="elements">
<path id="Rectangle 2333" d="M8.25 9.78125C8.20707 10.8616 7.30681 11.7788 6.10079 11.7493C5.82021 11.7425 5.47341 11.6446 4.77982 11.449C3.11061 10.9782 1.66157 10.1869 1.31391 8.41424C1.25 8.08839 1.25 7.72173 1.25 6.9884L1.25 6.0116C1.25 5.27827 1.25 4.91161 1.31391 4.58576C1.66157 2.81312 3.11061 2.02183 4.77982 1.551C5.47341 1.35536 5.82021 1.25754 6.10079 1.25068C7.3068 1.22117 8.20706 2.13844 8.25 3.21874" stroke="#E11818" stroke-linecap="round"/>
<path id="Vector" d="M5.3335 6.49984H11.7502M5.3335 6.49984C5.3335 6.09137 6.49684 5.32823 6.79183 5.0415M5.3335 6.49984C5.3335 6.9083 6.49684 7.67145 6.79183 7.95817" stroke="#E11818" stroke-linecap="round" stroke-linejoin="round"/>
</g>
</svg>
