<svg width="16" height="16" viewBox="0 0 16 16" fill="none" xmlns="http://www.w3.org/2000/svg">
<g id="elements">
<path id="Vector" d="M14.2117 4.76077L13.8827 4.1897C13.6338 3.75781 13.5094 3.54187 13.2977 3.45576C13.086 3.36965 12.8465 3.4376 12.3676 3.57349L11.5541 3.80262C11.2484 3.87313 10.9276 3.83313 10.6485 3.6897L10.4239 3.56012C10.1845 3.40679 10.0003 3.18073 9.89843 2.915L9.67579 2.25008C9.52941 1.81006 9.45621 1.59006 9.28196 1.46422C9.10771 1.33838 8.87626 1.33838 8.41336 1.33838L7.67017 1.33838C7.20727 1.33838 6.97581 1.33838 6.80156 1.46422C6.62731 1.59006 6.55412 1.81006 6.40774 2.25008L6.1851 2.915C6.08318 3.18073 5.89905 3.40679 5.65966 3.56012L5.43507 3.6897C5.15591 3.83313 4.83514 3.87313 4.5294 3.80262L3.71591 3.57349C3.23702 3.4376 2.99758 3.36965 2.78586 3.45576C2.57414 3.54187 2.44971 3.75781 2.20085 4.1897L1.87179 4.76077C1.63852 5.1656 1.52188 5.36802 1.54452 5.5835C1.56716 5.79898 1.7233 5.97262 2.03559 6.31992L2.72295 7.08839C2.89095 7.30107 3.01022 7.67171 3.01022 8.00494C3.01022 8.33838 2.89099 8.70892 2.72297 8.92164L2.03559 9.69012C1.7233 10.0374 1.56716 10.2111 1.54452 10.4265C1.52188 10.642 1.63852 10.8444 1.87179 11.2493L2.20084 11.8203C2.4497 12.2522 2.57414 12.4682 2.78586 12.5543C2.99758 12.6404 3.23703 12.5724 3.71593 12.4365L4.52937 12.2074C4.83517 12.1369 5.15599 12.1769 5.43519 12.3204L5.65975 12.45C5.89909 12.6033 6.08318 12.8293 6.18508 13.095L6.40774 13.76C6.55412 14.2 6.62731 14.42 6.80156 14.5459C6.97581 14.6717 7.20727 14.6717 7.67017 14.6717H8.41336C8.87626 14.6717 9.10771 14.6717 9.28196 14.5459C9.45621 14.42 9.52941 14.2 9.67579 13.76L9.89845 13.095C10.0004 12.8293 10.1844 12.6033 10.4238 12.45L10.6483 12.3204C10.9275 12.1769 11.2484 12.1369 11.5542 12.2074L12.3676 12.4365C12.8465 12.5724 13.0859 12.6404 13.2977 12.5543C13.5094 12.4682 13.6338 12.2522 13.8827 11.8203L13.8827 11.8203L14.2117 11.2493C14.445 10.8444 14.5616 10.642 14.539 10.4265C14.5164 10.2111 14.3602 10.0374 14.0479 9.69012L13.3606 8.92164C13.1925 8.70892 13.0733 8.33838 13.0733 8.00494C13.0733 7.67171 13.1926 7.30107 13.3606 7.08839L14.0479 6.31992C14.3602 5.97262 14.5164 5.79898 14.539 5.5835C14.5616 5.36802 14.445 5.1656 14.2117 4.76077Z" stroke="#636464" stroke-width="1.5" stroke-linecap="round"/>
<path id="Ellipse 1200" d="M10.3464 7.99984C10.3464 9.2885 9.30169 10.3332 8.01302 10.3332C6.72436 10.3332 5.67969 9.2885 5.67969 7.99984C5.67969 6.71117 6.72436 5.6665 8.01302 5.6665C9.30169 5.6665 10.3464 6.71117 10.3464 7.99984Z" stroke="#636464" stroke-width="1.5"/>
</g>
</svg>
