<svg width="15" height="15" viewBox="0 0 15 15" fill="none" xmlns="http://www.w3.org/2000/svg">
<g id="login-03">
<g id="elements">
<path id="Rectangle 2333" d="M3.75 10.5C2.51537 10.4509 1.46705 9.42206 1.50077 8.04376C1.50862 7.7231 1.62041 7.32676 1.844 6.53408C2.38209 4.62641 3.28642 2.97037 5.3123 2.57304C5.68469 2.5 6.10374 2.5 6.94183 2.5L8.05817 2.5C8.89626 2.5 9.31531 2.5 9.6877 2.57304C11.7136 2.97037 12.6179 4.62641 13.156 6.53408C13.3796 7.32676 13.4914 7.7231 13.4992 8.04376C13.5329 9.42206 12.4846 10.4509 11.25 10.5" stroke="#818282" stroke-linecap="round"/>
<path id="Vector" d="M7.53451 4.1665L7.53451 11.4998M7.53451 4.1665C8.00132 4.1665 8.87349 5.49604 9.20117 5.83317M7.53451 4.1665C7.06769 4.1665 6.19552 5.49604 5.86784 5.83317" stroke="#636464" stroke-linecap="round" stroke-linejoin="round"/>
</g>
</g>
</svg>
