<svg width="14" height="14" viewBox="0 0 14 14" fill="none" xmlns="http://www.w3.org/2000/svg">
<g id="elements">
<path id="Rectangle 2333" d="M9 10.75C8.95093 11.9846 7.92206 13.0329 6.54376 12.9992C6.2231 12.9914 5.82676 12.8796 5.03408 12.656C3.12641 12.1179 1.47037 11.2136 1.07304 9.1877C1 8.81531 1 8.39626 1 7.55817L1 6.44183C1 5.60374 1 5.18469 1.07304 4.8123C1.47037 2.78642 3.12641 1.88209 5.03408 1.344C5.82676 1.12041 6.2231 1.00862 6.54376 1.00077C7.92206 0.967054 8.95093 2.01536 9 3.24999" stroke="#818282" stroke-width="1.5" stroke-linecap="round"/>
<path id="Vector" d="M5.66675 7.00016H13.0001M5.66675 7.00016C5.66675 6.53334 6.99628 5.66118 7.33341 5.3335M5.66675 7.00016C5.66675 7.46698 6.99628 8.33914 7.33341 8.66683" stroke="#636464" stroke-width="1.5" stroke-linecap="round" stroke-linejoin="round"/>
</g>
</svg>
