<svg width="16" height="16" viewBox="0 0 16 16" fill="none" xmlns="http://www.w3.org/2000/svg">
<g id="elements">
<g id="Vector">
<path d="M2.52578 6.02464C2.05419 6.27992 0.817707 6.80117 1.57081 7.45342C1.93869 7.77205 2.34842 7.99992 2.86354 7.99992H5.80296C6.31809 7.99992 6.72782 7.77205 7.0957 7.45342C7.8488 6.80117 6.61232 6.27992 6.14073 6.02464C5.03486 5.42602 3.63165 5.42602 2.52578 6.02464Z" stroke="#06031E"/>
<path d="M5.83325 2.8484C5.83325 3.6852 5.16168 4.36356 4.33325 4.36356C3.50483 4.36356 2.83325 3.6852 2.83325 2.8484C2.83325 2.01161 3.50483 1.33325 4.33325 1.33325C5.16168 1.33325 5.83325 2.01161 5.83325 2.8484Z" stroke="#06031E"/>
</g>
<path id="Vector_2" d="M2.66675 9.99976C2.66675 12.2112 4.45532 13.9998 6.66675 13.9998L6.09532 12.8569" stroke="#06031E" stroke-linecap="round" stroke-linejoin="round"/>
<path id="Vector_3" d="M13.3333 5.99976C13.3333 3.78833 11.5447 1.99976 9.33325 1.99976L9.90468 3.14261" stroke="#06031E" stroke-linecap="round" stroke-linejoin="round"/>
<g id="Vector_4">
<path d="M9.85927 12.6911C9.38768 12.9464 8.1512 13.4677 8.9043 14.1199C9.27218 14.4385 9.68191 14.6664 10.197 14.6664H13.1365C13.6516 14.6664 14.0613 14.4385 14.4292 14.1199C15.1823 13.4677 13.9458 12.9464 13.4742 12.6911C12.3684 12.0925 10.9651 12.0925 9.85927 12.6911Z" stroke="#06031E"/>
<path d="M13.1667 9.51491C13.1667 10.3517 12.4952 11.0301 11.6667 11.0301C10.8383 11.0301 10.1667 10.3517 10.1667 9.51491C10.1667 8.67811 10.8383 7.99976 11.6667 7.99976C12.4952 7.99976 13.1667 8.67811 13.1667 9.51491Z" stroke="#06031E"/>
</g>
</g>
</svg>
