<svg width="33" height="33" viewBox="0 0 33 33" fill="none" xmlns="http://www.w3.org/2000/svg">
<path d="M11.3988 27.8484C21.7759 27.8484 27.4519 19.2505 27.4519 11.7953C27.4519 11.5505 27.4519 11.3072 27.4354 11.0665C28.5397 10.267 29.4928 9.27714 30.25 8.1433C29.2202 8.5998 28.1278 8.89922 27.0091 9.03155C28.187 8.32625 29.0685 7.21703 29.4896 5.9103C28.3823 6.56739 27.171 7.03055 25.9077 7.2798C25.0572 6.37472 23.9319 5.77532 22.7062 5.57439C21.4806 5.37346 20.2228 5.58222 19.1278 6.16834C18.0328 6.75446 17.1615 7.68525 16.6489 8.81658C16.1363 9.94791 16.011 11.2167 16.2924 12.4264C14.0492 12.314 11.8547 11.7311 9.85139 10.7156C7.84807 9.70009 6.0807 8.27464 4.664 6.5318C3.94256 7.7737 3.72156 9.24388 4.04599 10.643C4.37041 12.0421 5.21588 13.265 6.41025 14.0627C5.51273 14.0367 4.63462 13.7952 3.85 13.3587V13.4302C3.85054 14.7327 4.30154 15.995 5.12655 17.0029C5.95155 18.0109 7.09977 18.7025 8.3765 18.9604C7.54574 19.1869 6.6741 19.2198 5.82862 19.0567C6.1891 20.1779 6.89106 21.1585 7.8363 21.8611C8.78154 22.5638 9.92279 22.9534 11.1004 22.9754C9.93041 23.8947 8.59071 24.5743 7.15787 24.9754C5.72504 25.3765 4.22719 25.4912 2.75 25.3129C5.33033 26.9689 8.33276 27.8472 11.3988 27.8429" fill="#9CA3AF"/>
</svg>
