<svg width="20" height="16" viewBox="0 0 20 16" fill="none" xmlns="http://www.w3.org/2000/svg">
<path id="Vector" d="M3.98975 0.943542C4.1302 1.08417 4.20909 1.27479 4.20909 1.47354C4.20909 1.67229 4.1302 1.86292 3.98975 2.00354C3.20042 2.79284 2.5743 3.72989 2.14711 4.76117C1.71993 5.79246 1.50007 6.89779 1.50007 8.01404C1.50007 9.1303 1.71993 10.2356 2.14711 11.2669C2.5743 12.2982 3.20042 13.2352 3.98975 14.0245C4.1263 14.1661 4.20181 14.3555 4.20001 14.5522C4.19821 14.7488 4.11924 14.9369 3.98012 15.0759C3.841 15.2149 3.65285 15.2937 3.4562 15.2953C3.25955 15.2969 3.07014 15.2212 2.92875 15.0845C-0.97625 11.1795 -0.97625 4.84854 2.92875 0.943542C3.06938 0.803092 3.26 0.724203 3.45875 0.724203C3.6575 0.724203 3.84912 0.803092 3.98975 0.943542ZM17.0707 0.943542C20.9757 4.84854 20.9757 11.1795 17.0707 15.0855C16.9286 15.218 16.7405 15.2901 16.5462 15.2867C16.3519 15.2833 16.1665 15.2046 16.0291 15.0672C15.8917 14.9298 15.813 14.7444 15.8096 14.5501C15.8061 14.3558 15.8783 14.1677 16.0107 14.0255C16.8002 13.2362 17.4265 12.2991 17.8538 11.2677C18.281 10.2364 18.5009 9.13092 18.5009 8.01454C18.5009 6.89817 18.281 5.79272 17.8538 4.76135C17.4265 3.72997 16.8002 2.79286 16.0107 2.00354C15.9371 1.93488 15.878 1.85208 15.837 1.76008C15.796 1.66808 15.7739 1.56877 15.7722 1.46807C15.7704 1.36736 15.7889 1.26733 15.8266 1.17394C15.8643 1.08056 15.9205 0.995723 15.9917 0.924504C16.0629 0.853285 16.1478 0.797141 16.2412 0.75942C16.3345 0.721699 16.4346 0.703174 16.5353 0.704951C16.636 0.706727 16.7353 0.728769 16.8273 0.769761C16.9193 0.810753 17.0021 0.869856 17.0707 0.943542ZM6.81775 3.77154C6.9582 3.91217 7.03709 4.10279 7.03709 4.30154C7.03709 4.50029 6.9582 4.69092 6.81775 4.83154C6.39973 5.24943 6.06813 5.74557 5.84189 6.29163C5.61566 6.83769 5.49921 7.42297 5.49921 8.01404C5.49921 8.60511 5.61566 9.1904 5.84189 9.73646C6.06813 10.2825 6.39973 10.7787 6.81775 11.1965C6.95023 11.3387 7.02235 11.5268 7.01892 11.7211C7.0155 11.9154 6.93678 12.1008 6.79937 12.2382C6.66196 12.3756 6.47657 12.4543 6.28227 12.4577C6.08797 12.4611 5.89993 12.389 5.75775 12.2565C4.63262 11.1313 4.00053 9.60527 4.00053 8.01404C4.00053 6.42281 4.63262 4.89675 5.75775 3.77154C5.89838 3.63109 6.089 3.5522 6.28775 3.5522C6.4865 3.5522 6.67712 3.63109 6.81775 3.77154ZM14.2428 3.77154C15.3679 4.89675 16 6.42281 16 8.01404C16 9.60527 15.3679 11.1313 14.2428 12.2565C14.1736 12.3282 14.0909 12.3854 13.9994 12.4247C13.9079 12.4641 13.8095 12.4848 13.7099 12.4857C13.6103 12.4866 13.5116 12.4677 13.4194 12.43C13.3272 12.3924 13.2434 12.3367 13.173 12.2663C13.1025 12.196 13.0468 12.1122 13.009 12.0201C12.9713 11.9279 12.9522 11.8292 12.9531 11.7296C12.9539 11.63 12.9745 11.5316 13.0138 11.4401C13.0531 11.3485 13.1102 11.2658 13.1818 11.1965C13.5996 10.7787 13.9311 10.2826 14.1572 9.73663C14.3834 9.19066 14.4998 8.6055 14.4998 8.01454C14.4998 7.42359 14.3834 6.83842 14.1572 6.29245C13.9311 5.74649 13.5996 5.25041 13.1818 4.83254C13.0493 4.69037 12.9771 4.50232 12.9806 4.30802C12.984 4.11372 13.0627 3.92833 13.2001 3.79092C13.3375 3.65351 13.5229 3.5748 13.7172 3.57137C13.9115 3.56794 14.0996 3.64006 14.2418 3.77254L14.2428 3.77154ZM9.99975 6.51454C10.3976 6.51454 10.7791 6.67258 11.0604 6.95388C11.3417 7.23519 11.4998 7.61672 11.4998 8.01454C11.4998 8.41237 11.3417 8.7939 11.0604 9.0752C10.7791 9.35651 10.3976 9.51454 9.99975 9.51454C9.60193 9.51454 9.22039 9.35651 8.93909 9.0752C8.65779 8.7939 8.49975 8.41237 8.49975 8.01454C8.49975 7.61672 8.65779 7.23519 8.93909 6.95388C9.22039 6.67258 9.60193 6.51454 9.99975 6.51454Z" fill="#06031E"/>
</svg>
